/* XPM */
static char *result[] = {
/* columns rows colors chars-per-pixel */
"64 64 63 1 ",
"  c #000002",
". c #0C0007",
"X c #140507",
"o c #170907",
"O c #190B07",
"+ c #1D0F08",
"@ c #1F1108",
"# c #201208",
"$ c #271809",
"% c #2B1C09",
"& c #2F200A",
"* c #33230B",
"= c #38270B",
"- c #3B2A0C",
"; c #412F0D",
": c #44320E",
"> c #49360F",
", c #4B380F",
"< c #4F3B10",
"1 c #523E11",
"2 c #574211",
"3 c #5B4512",
"4 c #5F4813",
"5 c #634C14",
"6 c #6B5316",
"7 c #715717",
"8 c #725817",
"9 c #745A18",
"0 c #7A5F1A",
"q c #7E621B",
"w c #81651B",
"e c #86691C",
"r c #8B6D1D",
"t c #8F701E",
"y c #92721F",
"u c #957520",
"i c #987721",
"p c #9C7A22",
"a c #A17E23",
"s c #A58224",
"d c #A98525",
"f c #AE8926",
"g c #B18B27",
"h c #B48E28",
"j c #B79028",
"k c #BC942A",
"l c #C0972B",
"z c #C39A2C",
"x c #C99F2D",
"c c #CCA12E",
"v c #D1A52F",
"b c #D3A730",
"n c #D6A931",
"m c #DAAD32",
"M c #DFB033",
"N c #E3B434",
"B c #ECBB36",
"V c #F0BF37",
"C c #F1BF38",
"Z c #F5C239",
"A c #F9C639",
"S c #FECB3B",
"D c #FFD03D",
/* pixels */
"###########@###########+###########+############################",
"########@#################################+###########+#######+#",
"##@##@############################################+#############",
"##############@#+############+##################################",
"###@################+###########################################",
"@#############@######################################+##########",
"#######@###@###########################+##################+#####",
"#########@#################+##############+#####################",
"##################################+#############################",
"#######@##@######@###@#######################+#############+####",
"OOOOOOOOOOOOOOOOOOOOOOO+O+@@########################+###########",
"                         .X+####################################",
"                           X+#$$##########+#####################",
"                           .+$$$$##################+##########+#",
"                           .+$$%$######################+########",
"                           X@#$#################################",
">>>>>>>>>>>>>>>>>>><>>>:;=*%@OoO+++#+#@#@@+#@@@@+@@+@@@@@@######",
"0000q0qqqqqqqwqqqwqwwq0753>*X                     .    ..XX#####",
"pspssssssdddddddssddddaue83=                              .X##$$",
"lklllzzzxxxxcccxcxcxxzkgpe6-                               .##$$",
"nnnnmmmNNNNNNNNNNNNNNNnzhi0:                               .+$$$",
"BBBBBBBCVVVZZVZZBZZZZZBmxde3                               .##$$",
"ZAAAAAAZZAAAZAAAAASSSSZBvkp9:    .$%$%%$$$%%$%%%%%&&%%%%%$######",
"SSSSAAAZZVBBBBBBCZASSSSCNcgy92<13666666666666666666666653<:*$X..",
"SDSSAZVBNNmmnmmmMBBASSSABmzgpyrruiiiiiuuutuuuuiiiiipiiurq73:% . ",
"SSSSZBNnclkkkkkzzbmBZASACNnckkhkkkkkkkjgjggjjjkkkkkkkjgdie7<&   ",
"SSSAVNvzgsiutyyiskcmBZASZCNNmmnmnmmmnbbbvvvbbmmmMmMmmnclfpq4=   ",
"SSSZNmzdy9521146wphcMBAASAZCBBBBBBBBBBBNNNNNBNBBBBBBBBNbkft6=   ",
"SSAZNbji7;     X2wskmBASSAAAZAZZZZZAZZZZZZZZZZZAAAAASAZNvki7-   ",
"SSSCNxgr2       #7iknBASSSAAZCZZZZZZZAAASSAAAAZZZAASDSSBmkp9-   ",
"SSSZNcdw:        5uknBASAACNNNNNNNNNBZAASSSAZZBNNBZSDDSZMls9-   ",
"SSSZNzdq-        4ujnBAAABNmbcccxxxbmNCASDSSBMnvbmNZSDSANcsq-   ",
"SSAZNxdq=        4ikmBAAZNczhdssasdglbNADDDCNbkhglnBADDANcs0-   ",
"SSSZNcdw:        6izmBAZNnkstq8667qrdlmBADACnkprrpknCSSANcs0;   ",
"SSSVNcfr2       $8pzMZABNcfe5=.   -5rfcNZSANcsq43qdcBZSZNca0-   ",
"SSSZNchi7:     X2wdcNZZZMkp6$      $6plmBCCMku4..4ukmCCBnzp9-   ",
"SSSZBnzdy9521126wpknBAABmky5        2rfcMNMcfq:  ;wfcMNMcji6=   ",
"SSSABNvzgaiytyiidkcNZAABmky5        >0phxcxjp9&  &7phxcckse5*   ",
"SSSSABNnczlkkkkzzvNZASSVMki6        -6rpfhfse5%  %5epfhfst92&   ",
"DSSSAZBBNNmmmmmmNBBASSSZmzp8$       -37wtytq72%  &16eturw94>%   ",
"SSSASAAZCVBBCBBBZZASDDSVMka9=      +*:1456542-&++&-1456542>=#X.X",
"AAAAAAZZAZAZZAAAAAASSSZBbki9-     +#@$$$%%%%$##@@#$$%%%&$$$###+#",
"BBBBBBBVCCCZZZCCBZZZZVNmxfy6-    .#+.        .X@@X         .##$$",
"nnnnmmMMNNNNNNNNNNMNNNmchse5*    o#+.         .@@.          +$$$",
"kkllzzzxxxxcccxxxxxxxzlgst92*    O$+.         .@@X         .+$$$",
"aaaaassssddddddddsddssaye05<%.   +#+X        .+@@o. .      X+#$#",
"0q0000qqqqqqqwwqqqwwwqq964<-$. .X+#@+OX.. ..X++###XX.....XO+####",
">>>>>>>>>>>>>>>>>>>,>,>:-=*$$+X++########++#@#@@####@++@@@######",
"                          .X###$################################",
"                           .##%$$######+########################",
"                           .+$$$$###############################",
"                           X##$$###########+############+###+###",
"                  .      .X+#############################+######",
"O+O+O+O++O++OOO+O++X+O+@+++######################+#####+########",
"@###@#########@#####@@@@#####################+##################",
"#@###@#####@########@######################+####################",
"#####+##########+###############################################",
"##########################################+##################+##",
"############################+###################################",
"###########+#######################################+############",
"##+###########+#################################################",
"###########################+####################################",
"#######################################+###########++###########",
"########+##########+##########+###########+##################+##"
};
