/* XPM */
static char *result[] = {
/* columns rows colors chars-per-pixel */
"64 64 57 1 ",
"  c #000000",
". c #0C0000",
"X c #140000",
"o c #1A0400",
"O c #1E0D03",
"+ c #1F1006",
"@ c #201107",
"# c #211309",
"$ c #261C14",
"% c #271E18",
"& c #281F19",
"* c #2A221C",
"= c #2D2721",
"- c #2F2823",
"; c #312B25",
": c #332F29",
"> c #36322C",
", c #38342F",
"< c #3A3732",
"1 c #3C3934",
"2 c #3F3D38",
"3 c #403E39",
"4 c #43423D",
"5 c #474641",
"6 c #4A4A45",
"7 c #4E4E49",
"8 c #4F504B",
"9 c #51524D",
"0 c #555651",
"q c #575853",
"w c #595B56",
"e c #5C5E59",
"r c #5E615B",
"t c #61635E",
"y c #636660",
"u c #666964",
"i c #696C66",
"p c #6B6E69",
"a c #6E716C",
"s c #70756F",
"d c #727670",
"f c #757A74",
"g c #787D77",
"h c #7A7F79",
"j c #7D827C",
"k c #80857F",
"l c #818680",
"z c #858B84",
"x c #888E87",
"c c #898F88",
"v c #8C938C",
"b c #90968F",
"n c #909790",
"m c #949B94",
"M c #979F98",
"N c #989F98",
"B c #9AA29B",
/* pixels */
"@#@######$+OoX.                                  .XoO###$@#@#@#+",
"@@#+@##$$##OoX                                    XoO#$#$###@#+#",
"#+@########OoXX                                  .Xo@@#####@#+##",
"###+####++##@@+++OO+OOO++OOOOOOOO+OOOO+OOOOOO+O++++@@##@@@@####+",
"+#@#++Oooo+#%*;>,<11111<11<<1<<<<<<<11<1<<<1<<<,,-*%#+OoOO+@++##",
"####OOXX.XX#*,357900000099099090090009090qqqq00753,*@o..XXOO####",
"####OX.    O;37qtuippiuiuuuuuuuuuuuuuuuuuipppiutq73;O    .XO####",
"#$##OX     o>6quafjjjjhjhhhhhhhgghhhhfhhhhjjjhgauq6>o     XO###$",
"#$##O.     o19tdjlcccczzzzzzzzzzzzzzzzzzzzcvcczhdy9<O     .o@#$$",
"##$@o.     $4wijzvnmmmnnnnnbbbvvbbvbnbvnbbnmmnvzhiw4$     .O####",
"####OX    X>7rajcnmMBmmmbnmnmbmmnmnmmnmmmmmMMmncjar6:X    X@@###",
"OO@###+oO$>4qudjznmmnmmnnbnnbbnnnnbbbbbnnnmmmmvcjdu05:$OoO###OOO",
"oXo@**->147qrpdjlxcccvcxccccccccccccccccccvvcczljdarq64<>;=&@ooo",
"XXX+*>469qrupaadfhjjjjjjjjjjjjjjjjjjjjjjjjjjhjggddaiurw964>*+XXX",
"...@-38wtaaddsaaiuuuiipaaaaaaaaapaaaaaaaapuuuuuuaasddsiyw73-+X .",
"   @>5quajjjjdptq977790wwewwwwwwwwwewewww007770qridjjjjsuq5>O   ",
"   O<7rsjlcclgiw6<-*=:1245453444444444444<:=*=<6wihlxxzjat7,O   ",
"   O<9ugzvnvxjaw4*.  .o$&*&**&&**&****&*$o.   *4wajxbbvzfu91O   ",
"   O10ijcnmmvldr5-.                          X-5rajvmmbxji01O   ",
"   O19ijcmMmvzgu04;@X                      X@;40igxbmMmxhi01+   ",
"   O1qijcmmBmvlduq72>*X                  o&:27wuflvnMMmxji01O   ",
"   O19ugxnmmmvxjfatw61*.                .*26wtafjxbmMmbzgu01O   ",
"   +<9uflvmMmmvxljdir71#                #17eidjzxbnmMmvzfu91O   ",
"   O<9yfjvmmmmmmvvlgie6:                :6epgkxvnmMmmmxldy81+   ",
"   O<9tdkvnmBBBBmmvjfu02#     ..X      #20uflvmmmBBmmnvldy9<O   ",
"   O<8tdjvmmBBBBBmbxjar7<$oo#&-;;;*#oo$<7tajcvmBBBBBmncjdy9<O   ",
"   +<9tdjxmmBBBBBBmvlfiw7311255665431247wiflvmBBBBBBBmvjdy8<O   ",
"   O<9uflvmBBBBBBNmvxjfiywqqqeeeeewq00wtidjxvmmBBBBBBmvldu9<O   ",
"   O<9tflvmBBBBBmNmvxljdaiiiippaappiiipsfjlcvmmBBBBBBmvlfu9<O   ",
"   O29ugznmBBBBBNmmnvvzjjhgghhjhjjhhhhhhjlxvvmmmBBBBBmvxgi9<+   ",
"   O19igzvmBBBBBmmnvvvvvczzzzzzzzzxzzzxxvvvvmmmmBBBBBmvxfu92O   ",
"   O<9udlvmBBBBmmmmbnvnvbbbbbbbbnnvbnvbvvvmnvmmmBBBBBmvldy9<O   ",
"   O,7tajzvmmmmmmnmmmmmmmmmmmmmmmmmmmmmmmmmmmmmbmmmmnvxjar7<O   ",
"   O>6widjzvvnvnnnmmmmmmmBmBBmBmMMMMNNMNMmmmmmmnvbnvvxjdiw6>O   ",
"   @>49ridhlzcvvnnmmmBmBBmBmmBmBmNNNNNMmBmMmmmbnvccxjjdir94:@   ",
"..X+-<59eypfhlzcvnmmmmmBBmBmmmBmNmmNMNmNmMmmmmnvcxjhdayw951-@X..",
"XXX@*;<469eyafjxvnmBmBmmmmmmmmmmmmmmmmmmmmmmBmnvxjgauw9641:*@XXX",
"ooO@$**;:<50tahlvnmmmmmnnmmmnmmmnmmmmmmmmmmBmmnclhat05<>-**$@ooo",
"O+O@#+XXXo-40udjxnmBBmmnnmnmnmnmmbnmnmmnmmmBMmncjfu04;oXXXO#@+@@",
"###@OX    .;6rajxnmmmBmmmnmnmnmnbmmnmnmnmmmmBmnxjar6-     XO@###",
"#$#+o.     $4eajxnMBMmmmmnmnnmnmmnmnmnmnmmmMmmmxjaw4$     .o+#$+",
"$#$#o.     #4wajxnmmMmmmnmnmmnmnnmnmnmnmmmMMBMbxjaw4#     .o#$+$",
"##$@O.     *5wajxnmBmBmnmnmnnmnmmnmbmnmnmmmMmmnxjiw5&     .o++$+",
"##@+OX     -5rajxnBmBmmmnmnmmnmnnmnmnmnmmmmMBmnxjae6-     XO++$+",
"###@+X    X>7rsjxnmmmmmmmnmnmnmnmnnmnmmnmmmNNmncjsr7:X    XO$+++",
"+@##OX    o>7rsjcnmBBmmmnmnmnmnmnmmnmnnmmmMmNmncjdr7,o    X+++$+",
"##@@Oo.   o,8rsjcnmmmmmnmnnmmnnnmnmmbnmnmmmMNmmcjst7,o   .X++$++",
"#+@@Oo    O,8rsjvnmBBBmmnmmnmmmmnmmnmmmnbmMMNmncjdt7,o    X+++++",
"##+#Oo    o,7tdkvmmNBmmmmmmmmmmnmmmmmmmmmmBBBNmvkdt8,o    oO@@#@",
"+#+#Oo    o<8ydlvmBBBBBmmBmmmmmBmmmBmmmmmBBBBmmvlfy8,o    XO@@@#",
"+##@+o    o<9yflvmBBBBBmBmBmBmmmBmmmBmmBBBBBBBmvlfy9,o   .X++##+",
"##+#+o    o<9yflvBBBBBBBmBmBmBBBmBBmBBBmmBBBBBmvlft9<o    oO##+#",
"#+#++X    o,9tdlvmNBBBmmmBBmmBBmmBmmmMmmmmBBBBmvlfy8,o    XO@##+",
"@#@#@o    o,7tsjvvmmmmmmnnnmnnnmnnmnnnmmmmmmBmvxjsr7,o    oO#+##",
"##++Oo.   O:6eiflxvvvvvvcvcvxvcvvvccvcxvvvvmvvxkfaw6>o   .o+##+#",
"+###@oX   o:40tsgjlzzzlkjjjjjjjjjjljljjljlllzljgat04;O   Xo+++#@",
"@##++oX. .O-27qypdfgffddddddsddssddddddddfffffsiyw71=O. .Xo@@#@#",
"#+##+OXXXXO*>470etyuuuuyytyyyyyyyyyyryyytuuuuutr074>*OXXXoO@@@#@",
"+##@@+OoooO$-<256899999989978998888888889999999651<;&+Xooo+@+#@#",
"+#@@@++oOOO$%=-:><11<1<<<<<<<<<<<<<<<<<<<<11<<<>:;=&#@OOOO@@#@#@",
"##@#+##+@#@@+@++OO+OOO+OOOOOOO+OO+OO+++OO+OOOOOO+@@@++#+##@#@##+",
"#+#+###$$##OoXX                                  XXo+##$###@#++#",
"#+#+###+##@OoX                                    XoO++$$+###+##",
"##@#+##$#$@OoX.                                  .Xo++##$##+###+"
};
