/* XPM */
static char *result[] = {
/* columns rows colors chars-per-pixel */
"64 64 202 2 ",
"   c #000000",
".  c #000718",
"X  c #00101D",
"o  c #161616",
"O  c #3E0000",
"+  c #3F231D",
"@  c #000326",
"#  c #000D25",
"$  c #001425",
"%  c #001B24",
"&  c #001B2B",
"*  c #001F30",
"=  c #002024",
"-  c #00242C",
";  c #122223",
":  c #1B2223",
">  c #262524",
",  c #2B2423",
"<  c #2E2827",
"1  c #2B2B2B",
"2  c #3B2723",
"3  c #312827",
"4  c #313131",
"5  c #490000",
"6  c #530700",
"7  c #4C180C",
"8  c #40211A",
"9  c #53291E",
"0  c #5C2A1B",
"q  c #602A1B",
"w  c #7B351E",
"e  c #452A25",
"r  c #422B26",
"t  c #552D24",
"y  c #5E2E23",
"u  c #612F23",
"i  c #643124",
"p  c #66352A",
"a  c #793725",
"s  c #723220",
"d  c #003D42",
"f  c #1F5458",
"g  c #294F53",
"h  c #3A5458",
"j  c #444545",
"k  c #465759",
"l  c #5D5E5E",
"z  c #535656",
"x  c #635B5A",
"c  c #6A4C46",
"v  c #466B6F",
"b  c #646566",
"n  c DimGray",
"m  c #727778",
"M  c #8F0000",
"N  c #980000",
"B  c #952900",
"V  c #913407",
"C  c #8D3A1E",
"Z  c #933C1C",
"A  c #9B3E1C",
"S  c #9C3D16",
"D  c #A32B00",
"F  c #A93801",
"G  c #A13F16",
"H  c #BF3B00",
"J  c #893A22",
"K  c #953F22",
"L  c #983F22",
"P  c #C43200",
"I  c #CD3C00",
"U  c #CD3100",
"Y  c #D63800",
"T  c #CD2700",
"R  c #E73900",
"E  c #FE3D00",
"W  c #F53A00",
"Q  c #9F401D",
"!  c #BB4504",
"~  c #A3411C",
"^  c #AB441D",
"/  c #A84215",
"(  c #BD4916",
")  c #B3461B",
"_  c #B5481D",
"`  c #B84817",
"'  c #924731",
"]  c #AE4621",
"[  c #B44922",
"{  c #B1553D",
"}  c #CC4300",
"|  c #C94B02",
" . c #C84B09",
".. c #D54300",
"X. c #DB4D00",
"o. c #D54C01",
"O. c #DC5203",
"+. c #DC540E",
"@. c #D7520E",
"#. c #C44B15",
"$. c #CB4E14",
"%. c #C14B1B",
"&. c #D04F11",
"*. c #CF5119",
"=. c #D35113",
"-. c #DB5312",
";. c #E64900",
":. c #F44400",
">. c #FE4300",
",. c #F64E00",
"<. c #FE4C00",
"1. c #E75301",
"2. c #EA5400",
"3. c #E3560D",
"4. c #E7580D",
"5. c #EA580C",
"6. c #EF5A03",
"7. c #F35400",
"8. c #FE5400",
"9. c #F45C04",
"0. c #FB5E02",
"q. c #F75E09",
"w. c #E25612",
"e. c #E75914",
"r. c #FF6300",
"t. c #FF6900",
"y. c #FF640A",
"u. c #FB6112",
"i. c #D65F36",
"p. c #E15D2B",
"a. c #FC6628",
"s. c #FD6C37",
"d. c #EB6027",
"f. c #AA5540",
"g. c #94726C",
"h. c #AD7A71",
"j. c #C86447",
"k. c #D76B4E",
"l. c #FE7245",
"z. c #FF7449",
"x. c #FD7B56",
"c. c #F87A56",
"v. c #EE714C",
"b. c #CE7B69",
"n. c #97827D",
"m. c #FF835C",
"M. c #CA887B",
"N. c #F08971",
"B. c #778C8E",
"V. c #808F91",
"C. c #979A9B",
"Z. c #8E9293",
"A. c #B09794",
"S. c #979FA0",
"D. c #899EA0",
"F. c #A7A9A9",
"G. c #AEB6B7",
"H. c #AAB9BB",
"J. c #B4B7B8",
"K. c #B6A6A4",
"L. c #CC958B",
"P. c #D9988B",
"I. c #D89D93",
"U. c #F59785",
"Y. c #F3A99C",
"T. c #CDBCB9",
"R. c #D5AFA8",
"E. c #FCAEA1",
"W. c #E4B4AC",
"Q. c #FFBBAB",
"!. c #FFB1A2",
"~. c #E6B7B0",
"^. c #FFBFB0",
"/. c #E3AAA0",
"(. c #D9C0BC",
"). c #B7BFC0",
"_. c #B5C2C3",
"`. c gray81",
"'. c #C6CCCC",
"]. c #D8C9C8",
"[. c #CED6D7",
"{. c #D3D2D2",
"}. c #DBD6D5",
"|. c #D0D0D0",
" X c #FED9D3",
".X c #F4D1CC",
"XX c #FFE4DE",
"oX c #D5DFE0",
"OX c #DBE3E4",
"+X c #DBE6E7",
"@X c #E3ECED",
"#X c #E8E7E7",
"$X c #FFEAE4",
"%X c #FFEEE9",
"&X c #E3EFF0",
"*X c #EAF2F3",
"=X c #EAF7F8",
"-X c #FCF3F2",
";X c #F5FDFD",
":X c #FFFFFF",
">X c #F6F4F4",
",X c None",
/* pixels */
",X,X,X,X,X,X,X,X,X,X,X,X,X,X,X,X,X,X,X,X,X,X,X,X,X,X,X,X,X,X,X,X,X,X,X,X,X,X,X,X,X,X,X,X,X,X,X,X,X,X,X,X,X,X,X,X,X,X,X,X,X,X,X,X",
",X,X,X,X,X,X,X,X,X,X,X,X,X,X,X,X,X,X,X,X,X,X,X,X,X,X,X,X,X,X,X,X,X,X,X,X,X,X,X,X,X,X,X,X,X,X,X,X,X,X,X,X,X,X,X,X,X,X,X,X,X,X,X,X",
",X,X,X,X,X,X,X,X,X,X,X,X,X,X,X,X,X,X,X,X,X,X,X,X,X,X,X,X,X,X,X,X,X,X,X,X,X,X,X,X,X,X,X,X,X,X,X,X,X,X,X,X,X,X,X,X,X,X,X,X,X,X,X,X",
",X,X,X,X,X,X,X,X,X,X,X,X,X,X,X,X,X,X,X,X,X,X,X,X,X,X,X,X,X,X,X,X,X,X,X,X,X,X,X,X,X,X,X,X,X,X,X,X,X,X,X,X,X,X,X,X,X,X,X,X,X,X,X,X",
",X,X,X,X,X,X,X,X,X,X,X,X,X,X,X,X,X,X,X,X,X,X,X,X,X,X,X,X,X,X,X,X,X,X,X,X,X,X,X,X,X,X,X,X,X,X,X,X,X,X,X,X,X,X,X,X,X,X,X,X,X,X,X,X",
",X,X,X,X,X,X,X,X,X,X,X,X,X,X,X,X,X,X,X,X,X,X,X,X,X,X,X,X,X,X,X,X,X,X,X,X,X,X,X,X,X,X,X,X,X,X,X,X,X,X,X,X,X,X,X,X,X,X,X,X,X,X,X,X",
",X,X,X,X,X,X,X,X,X,X,X,X,X,X,X,X,X,X,X,X,X,X,X,X,X,X,X,X,X,X,X,X,X,X,X,X,X,X,X,X,X,X,X,X,X,X,X,X,X,X,X,X,X,X,X,X,X,X,X,X,X,X,X,X",
",X,X,X,X,X,X,X,X,X,X,X,X,X,X,X,X,X,X,X,X,X,X,X,X,X,X,X,X,X,X,X,X,X,X,X,X,X,X,X,X,X,X,X,X,X,X,X,X,X,X,X,X,X,X,X,X,X,X,X,X,X,X,X,X",
",X,X,X,X,X,X,X,X,X,X,X,X,X,X,X,X,X,X,X,X,X,X,X,X,X,X,X,X,X,X,X,X,X,X,X,X,X,X,X,X,X,X,X,X,X,X,X,X,X,X,X,X,X,X,X,X,X,X,X,X,X,X,X,X",
",X,X,X,X,X,X,X,X,X,X,X,X,X,X,X,X,X,X,X,X,X,X,X,X,X,X,X,X,X,X,X,X,X,X,X,X,X,X,X,X,X,X,X,X,X,X,X,X,X,X,X,X,X,X,X,X,X,X,X,X,X,X,X,X",
",X,X,X,X,X,X,X,X,X,X,X,X,X,X,X,X,X,X,X,X,X,X,X,X,X,X,X,X,X,X,X,X,X,X,X,X,X,X,X,X,X,X,X,X,X,X,X,X,X,X,X,X,X,X,X,X,X,X,X,X,X,X,X,X",
",X,X,X,X,X,X,X,X,X,X,X,X,X,X,X,X,X,X,X,X,X,X,X,X,X,X,X,X,X,X,X,X,X,X,X,X,X,X,X,X,X,X,X,X,X,X,X,X,X,X,X,X,X,X,X,X,X,X,X,X,X,X,X,X",
",X,X,X,X,X,X,X,X,X,X,X,X,X,X,X,X,X, ; % $ $ $ $ % ; , ,X,X,X,X,X,X, ; = $ $ $ $ % ; , ,X,X,X,X,X,X,X,X,X,X,X,X,X,X,X,X,X,X,X,X,X",
",X,X,X,X,X,X,X,X,X,X,X,X,X,X,X,X> , : % = $ $ - = : > , ,X,X,X,X, > : = = $ $ & = : > , ,X,X,X,X,X,X,X,X,X,X,X,X,X,X,X,X,X,X,X,X",
",X,X,X,X,X,X,X,X,X,X,X,X,X,X,X,X; : 3 r t i y t e 3 : ; ,X,X,X,X; : 3 e t y y t e 3 : ; ,X,X,X,X,X,X,X,X,X,X,X,X,X,X,X,X,X,X,X,X",
",X,X,X,X,X,X,X,X,X,X,X,X,X,X,X,X% - e a K ] ] Q a e = % ,X,X,X,X= = e a Q ] ] K a e - = ,X,X,X,X,X,X,X,X,X,X,X,X,X,X,X,X,X,X,X,X",
",X,X,X,X,X,X,X,X,X,X,X,X,X,X,X,X$ = t Q _ =.=.%.K t $ $ ,X,X,X,X$ = t L %.*.=.%.Q t % $ ,X,X,X,X,X,X,X,X,X,X,X,X,X,X,X,X,X,X,X,X",
",X,X,X,X,X,X,X,X,X,X,X,X,X,X,X,X$ % y ^ -.u.6.-.] y % $ ,X,X,X,X$ $ u ^ -.9.9.-.] y % # ,X,X,X,X,X,X,X,X,X,X,X,X,X,X,X,X,X,X,X,X",
",X,X,X,X,X,X,X,X,X,X,X,X,X,X,X,X# $ i _ 4.r.r.e._ u & @ ,X,X,X,X# $ u _ e.0.r.4._ y $ # ,X,X,X,X,X,X,X,X,X,X,X,X,X,X,X,X,X,X,X,X",
",X,X,X,X,X,X,X,X,X,X,X,X,X,X,X$ @ $ t ) 4.r.r.4.) t $ @ @ ,X,X@ @ $ t ) 4.r.r.e.[ p $     ,X,X,X,X,X,X,X,X,X,X,X,X,X,X,X,X,X,X,X",
",X,X,X,X,X,X,X,X,X,X,X,X,X> = $ @ @ 2 G w.r.0.3.G 2 @ @ @ # # @ @ @ 2 ] +.r.0.e.[ p .                     o 1 ,X,X,X,X,X,X,X,X,X",
",X,X,X,X,X,X,X,X,X,X,X,X, > : % # # e G +.0.0.-.G e # @ $ $ $ $ @ # e G +.0.0.w.] y X                     o 1 4 ,X,X,X,X,X,X,X,X",
",X,X,X,X,X,X,X,X,X,X,X,X; : < > ; 2 a ` w.0.0.4.` C e 3 t y i t 2 e a ` 4.0.0.O.F 9 - d h l b b n b l z j 4 o o ,X,X,X,X,X,X,X,X",
",X,X,X,X,X,X,X,X,X,X,X,X% = r p a K ` =.9.r.r.6.=.G A A ] ) ) ^ A A ) $.5.r.0.X.B 5 f v B.F.G.J.J.G.F.Z.m j     ,X,X,X,X,X,X,X,X",
",X,X,X,X,X,X,X,X,X,X,X,X$ = t J ) #.+.9.0.r.r.0.4.@.&.=.-.w.3.-.&.&.=.5.0.r.9...N 5 g B.).[.+X&X&X+X[._.C.z     ,X,X,X,X,X,X,X,X",
",X,X,X,X,X,X,X,X,X,X,X,X# % y ~ *.5.0.r.r.r.r.r.0.9.9.9.0.0.0.9.0.9.9.r.r.r.9.I M 5 h D._.&X:X:X:X:X*X[.F.l     ,X,X,X,X,X,X,X,X",
",X,X,X,X,X,X,X,X,X,X,X,X# % u ^ -.0.r.r.0.0.9.0.0.r.r.r.r.0.0.r.0.0.r.r.r.r.9.I M O k S.[.-X:X:X:X:X>X}.F.x     ,X,X,X,X,X,X,X,X",
",X,X,X,X,X,X,X,X,X,X,X$ @ $ t ^ w.r.r.r.4.&.$.3.0.r.r.0.4.+.@.4.0.r.r.r.r.r.9.I M O k C.]. X$X%X%X$X X~.A.x     ,X,X,X,X,X,X,X,X",
",X,X,X,X,X,X,X,X,X, = % @ @ 2 A +.0.r.6.%.Z A ( 4.0.r.4.#.A Q ( +.r.r.r.r.r.9.| B O j g.L.E.Q.^.^.Q.E.P.h.c     ,X,X,X,X,X,X,X,X",
",X,X,X,X,X,X,X,X, > ; % # $ e ~ -.0.0.+.G t t A -.0.r.-.G t t Q =.9.r.t.r.r.0.| V 8 2 ' j.c.m.m.m.m.c.k.f.p X . ,X,X,X,X,X,X,X,X",
",X,X,X,X,X,X,X,X; : < < : 2 w ` 4.0.0.-.A t t A +.0.0.O.G 9 9 Z &.9.r.r.r.r.q.*.J r + B I :.<.<.<.<.:.Y F q & & ,X,X,X,X,X,X,X,X",
",X,X,X,X,X,X,X,X% % e p C A ( -.9.0.r.4.%.~ G } 1.8.8.;.H B B } O.0.r.r.r.r.q.*.K r + B U W E E E E W Y D q - * ,X,X,X,X,X,X,X,X",
",X,X,X,X,X,X,X,X$ % t K _ &.5.9.0.r.r.q.e.-.X.;.7.<.<.:.R U Y ;.7.0.y.y.r.r.y.*.Z r + V } ,.8.8.8.8.,...F u = $ ,X,X,X,X,X,X,X,X",
",X,X,X,X,X,X,X,X$ $ y ~ =.9.r.r.r.r.r.r.u.q.0.8.8.8.8.<.,.,.,.7.0.r.0.y.r.r.9.&.Z e 2 Z  .9.r.r.r.r.9.+.^ y % $ ,X,X,X,X,X,X,X,X",
",X,X,X,X,X,X,X,X$ $ u ] =.q.r.r.0.9.9.0.0.0.u.a.s.l.z.z.z.z.l.s.a.u.0.0.r.r.6.$.C 2 + C &.9.r.t.r.r.9.-.^ i $ $ ,X,X,X,X,X,X,X,X",
",X,X,X,X,X,X,X,X$ % t L %.-.4.e.w.-.-.X.X.X.e.v.N.N.U.U.U.U.N.m.v.d.1.2.7.6.O.` w = , C $.9.r.r.r.r.0.-.^ i $ # ,X,X,X,X,X,X,X,X",
",X,X,X,X,X,X,X,X= = e a Q ] ^ _ ^ ^ ^ F D F f.h.L.R.W.W.~.W./.P.b.i...I X.O.| Q 0 $ - C $.9.r.r.t.r.0.w.^ i % # ,X,X,X,X,X,X,X,X",
",X,X,X,X,X,X,X,X; : 3 e y i i i i i i 6 5 6 c A.K.T.].{.|.`.(.R.M.j.P P } | ! S 9 % > Z $.9.r.r.r.t.r.-.) i $ # ,X,X,X,X,X,X,X,X",
",X,X,X,X,X,X,X,X, > : - % % % % $ & %       g B.G.[.OXOX+X+X{.T.L.j.P T } | ! / w 0 s ~ -.9.r.r.r.r.4.*.] t $ $ ,X,X,X,X,X,X,X,X",
",X,X,X,X,X,X,X,X,X, ; = $ # # # # # .       f V.).oX&X*X=X&X}.(.I.k.Y T ..O.| ! / ~ ^ #.3.r.r.0.6.-.#.) J t % $ ,X,X,X,X,X,X,X,X",
",X,X,X,X,X,X,X,X,X,X,X,X,X,X,X,X,X,X,X      k S.'.#X;X:X;X=X#X.XY.v.;.R ;.2.2.+.@.&.@.4.9.r.0.5.&.) Z a p e = % ,X,X,X,X,X,X,X,X",
",X,X,X,X,X,X,X,X,X,X,X,X,X,X,X,X,X,X,X,X    l F.{.*X:X:X:X:X-X XY.x.>.W <.0.r.0.9.9.9.0.r.r.9.=.) w e ; 1 < : ; ,X,X,X,X,X,X,X,X",
",X,X,X,X,X,X,X,X,X,X,X,X,X,X,X,X,X,X,X,X    b F.}.;X:X:X:X:X-X X!.x.>.E 8.0.r.r.r.r.r.r.r.r.9.&.A e # # $ ; > , ,X,X,X,X,X,X,X,X",
",X,X,X,X,X,X,X,X,X,X,X,X,X,X,X,X,X,X,X,X    b J.#X:X:X:X:X:X:XXXQ.m.<.>.0.r.r.r.r.t.t.t.t.r.y.-.A 2 # # $ = , ,X,X,X,X,X,X,X,X,X",
",X,X,X,X,X,X,X,X,X,X,X,X,X,X,X,X,X,X,X,X    n J.#X:X:X:X:X:X:X$XQ.m.<.>.8.t.t.t.t.t.t.t.t.t.y.e.^ t $ # $ ,X,X,X,X,X,X,X,X,X,X,X",
",X,X,X,X,X,X,X,X,X,X,X,X,X,X,X,X,X,X,X,X    n J.#X:X:X:X:X:X:X$XQ.m.<.>.8.r.t.r.t.r.r.r.t.t.y.w._ i & # ,X,X,X,X,X,X,X,X,X,X,X,X",
",X,X,X,X,X,X,X,X,X,X,X,X,X,X,X,X,X,X,X,X    x C.`.>X:X:X:X:X-X X!.x.<.E 8.0.0.0.r.r.0.r.r.r.r.*.Q y $ # ,X,X,X,X,X,X,X,X,X,X,X,X",
",X,X,X,X,X,X,X,X,X,X,X,X,X,X,X,X,X,X,X,X,X  x S.`.>X:X:X:X:X-X X!.x.>.E 8.0.0.r.r.0.0.r.r.r.6.*.A y % ,X,X,X,X,X,X,X,X,X,X,X,X,X",
",X,X,X,X,X,X,X,X,X,X,X,X,X,X,X,X,X,X,X,X,X,X,X,X,X,X,X,X,X,X,X,X,X,X,X,X,X,X,X,X,X,X,X,X,X,X,X,X,X,X,X,X,X,X,X,X,X,X,X,X,X,X,X,X",
",X,X,X,X,X,X,X,X,X,X,X,X,X,X,X,X,X,X,X,X,X,X,X,X,X,X,X,X,X,X,X,X,X,X,X,X,X,X,X,X,X,X,X,X,X,X,X,X,X,X,X,X,X,X,X,X,X,X,X,X,X,X,X,X",
",X,X,X,X,X,X,X,X,X,X,X,X,X,X,X,X,X,X,X,X,X,X,X,X,X,X,X,X,X,X,X,X,X,X,X,X,X,X,X,X,X,X,X,X,X,X,X,X,X,X,X,X,X,X,X,X,X,X,X,X,X,X,X,X",
",X,X,X,X,X,X,X,X,X,X,X,X,X,X,X,X,X,X,X,X,X,X,X,X,X,X,X,X,X,X,X,X,X,X,X,X,X,X,X,X,X,X,X,X,X,X,X,X,X,X,X,X,X,X,X,X,X,X,X,X,X,X,X,X",
",X,X,X,X,X,X,X,X,X,X,X,X,X,X,X,X,X,X,X,X,X,X,X,X,X,X,X,X,X,X,X,X,X,X,X,X,X,X,X,X,X,X,X,X,X,X,X,X,X,X,X,X,X,X,X,X,X,X,X,X,X,X,X,X",
",X,X,X,X,X,X,X,X,X,X,X,X,X,X,X,X,X,X,X,X,X,X,X,X,X,X,X,X,X,X,X,X,X,X,X,X,X,X,X,X,X,X,X,X,X,X,X,X,X,X,X,X,X,X,X,X,X,X,X,X,X,X,X,X",
",X,X,X,X,X,X,X,X,X,X,X,X,X,X,X,X,X,X,X,X,X,X,X,X,X,X,X,X,X,X,X,X,X,X,X,X,X,X,X,X,X,X,X,X,X,X,X,X,X,X,X,X,X,X,X,X,X,X,X,X,X,X,X,X",
",X,X,X,X,X,X,X,X,X,X,X,X,X,X,X,X,X,X,X,X,X,X,X,X,X,X,X,X,X,X,X,X,X,X,X,X,X,X,X,X,X,X,X,X,X,X,X,X,X,X,X,X,X,X,X,X,X,X,X,X,X,X,X,X",
",X,X,X,X,X,X,X,X,X,X,X,X,X,X,X,X,X,X,X,X,X,X,X,X,X,X,X,X,X,X,X,X,X,X,X,X,X,X,X,X,X,X,X,X,X,X,X,X,X,X,X,X,X,X,X,X,X,X,X,X,X,X,X,X",
",X,X,X,X,X,X,X,X,X,X,X,X,X,X,X,X,X,X,X,X,X,X,X,X,X,X,X,X,X,X,X,X,X,X,X,X,X,X,X,X,X,X,X,X,X,X,X,X,X,X,X,X,X,X,X,X,X,X,X,X,X,X,X,X",
",X,X,X,X,X,X,X,X,X,X,X,X,X,X,X,X,X,X,X,X,X,X,X,X,X,X,X,X,X,X,X,X,X,X,X,X,X,X,X,X,X,X,X,X,X,X,X,X,X,X,X,X,X,X,X,X,X,X,X,X,X,X,X,X",
",X,X,X,X,X,X,X,X,X,X,X,X,X,X,X,X,X,X,X,X,X,X,X,X,X,X,X,X,X,X,X,X,X,X,X,X,X,X,X,X,X,X,X,X,X,X,X,X,X,X,X,X,X,X,X,X,X,X,X,X,X,X,X,X",
",X,X,X,X,X,X,X,X,X,X,X,X,X,X,X,X,X,X,X,X,X,X,X,X,X,X,X,X,X,X,X,X,X,X,X,X,X,X,X,X,X,X,X,X,X,X,X,X,X,X,X,X,X,X,X,X,X,X,X,X,X,X,X,X",
",X,X,X,X,X,X,X,X,X,X,X,X,X,X,X,X,X,X,X,X,X,X,X,X,X,X,X,X,X,X,X,X,X,X,X,X,X,X,X,X,X,X,X,X,X,X,X,X,X,X,X,X,X,X,X,X,X,X,X,X,X,X,X,X",
",X,X,X,X,X,X,X,X,X,X,X,X,X,X,X,X,X,X,X,X,X,X,X,X,X,X,X,X,X,X,X,X,X,X,X,X,X,X,X,X,X,X,X,X,X,X,X,X,X,X,X,X,X,X,X,X,X,X,X,X,X,X,X,X",
",X,X,X,X,X,X,X,X,X,X,X,X,X,X,X,X,X,X,X,X,X,X,X,X,X,X,X,X,X,X,X,X,X,X,X,X,X,X,X,X,X,X,X,X,X,X,X,X,X,X,X,X,X,X,X,X,X,X,X,X,X,X,X,X"
};
