/* XPM */
static char *result[] = {
/* columns rows colors chars-per-pixel */
"64 64 220 2 ",
"   c #000000",
".  c #01000D",
"X  c #09000F",
"o  c #010013",
"O  c #00011B",
"+  c #0B0013",
"@  c #00151A",
"#  c #061B1E",
"$  c #121212",
"%  c #13171E",
"&  c #180313",
"*  c #2C160B",
"=  c #331B0C",
"-  c #34170D",
";  c #260012",
":  c #330012",
">  c #3B0414",
",  c #3B1613",
"<  c #320005",
"1  c #3D210E",
"2  c #37210D",
"3  c #372218",
"4  c #001A21",
"5  c #0F1F22",
"6  c #001221",
"7  c #181C23",
"8  c #00002B",
"9  c #0E2023",
"0  c #232323",
"q  c #2C2A25",
"w  c #352621",
"e  c #362924",
"r  c #392B27",
"t  c #35332B",
"y  c #34353A",
"u  c #540000",
"i  c #560A00",
"p  c #571500",
"a  c #420314",
"s  c #471B13",
"d  c #510A0D",
"f  c #650000",
"g  c #6B0000",
"h  c #6B1800",
"j  c #751B00",
"k  c #741700",
"l  c #67161A",
"z  c #48250D",
"x  c #5C270F",
"c  c #572709",
"v  c #452411",
"b  c #4A2612",
"n  c #4C2A12",
"m  c #472A16",
"M  c #542A15",
"N  c #5B3417",
"B  c #4D3611",
"V  c #6F2C0F",
"C  c #672707",
"Z  c #752702",
"A  c #7A3200",
"S  c #783807",
"D  c #6A2A17",
"F  c #623417",
"G  c #6E3A1A",
"H  c #673619",
"J  c #733D1B",
"K  c #793F1C",
"L  c #793D13",
"P  c #693104",
"I  c #553324",
"U  c #5A3626",
"Y  c #4E3022",
"T  c #6C3C22",
"R  c #673A23",
"E  c #753F20",
"W  c #7B411E",
"Q  c #7C4019",
"!  c #665911",
"~  c #736A10",
"^  c #494432",
"/  c #5B5438",
"(  c #58502C",
")  c #7A4324",
"_  c #625A3B",
"`  c #615933",
"'  c #7E503D",
"]  c #68613E",
"[  c #5E4E11",
"{  c #383E4D",
"}  c #494949",
"|  c #555555",
" . c #585857",
".. c #4F535E",
"X. c #7E5D51",
"o. c #7C5647",
"O. c #766A4B",
"+. c #4C5A7B",
"@. c #58627B",
"#. c #5F6166",
"$. c #626366",
"%. c #796E6A",
"&. c #7B6B65",
"*. c #696E7D",
"=. c #63697A",
"-. c #72757C",
";. c #7C7D7E",
":. c #797977",
">. c #6E717C",
",. c #872600",
"<. c #852B00",
"1. c #813B01",
"2. c #843300",
"3. c #8C4000",
"4. c #85420F",
"5. c #82441F",
"6. c #824112",
"7. c #817B0F",
"8. c #824520",
"9. c #864925",
"0. c #81533F",
"q. c #835947",
"w. c #815F52",
"e. c #8E7441",
"r. c #837546",
"t. c #846356",
"y. c #907440",
"u. c #91776D",
"i. c #937B71",
"p. c #89746D",
"a. c #908D0E",
"s. c #A8A90C",
"d. c #BCBF0A",
"f. c #D3D806",
"g. c #C2C609",
"h. c #EDF502",
"j. c #988C56",
"k. c #AA9C5F",
"l. c #A5975B",
"z. c #B2A25C",
"x. c #AEA05E",
"c. c #85837E",
"v. c #908C7E",
"b. c #AB9D60",
"n. c #AFA167",
"m. c #B5A665",
"M. c #BCA760",
"N. c #BCAB64",
"B. c #BCAC69",
"V. c #C8B86E",
"C. c #DFCB76",
"Z. c #D8C678",
"A. c #D8C677",
"S. c #E2CE79",
"D. c #E5D27D",
"F. c #EAD67D",
"G. c #787C87",
"H. c #7B8488",
"J. c #72949A",
"K. c #719CA4",
"L. c #71AFBA",
"P. c #69BDCB",
"I. c #71C9D8",
"U. c #70D1E1",
"Y. c #6FD4E4",
"T. c #848484",
"R. c #8B8A8A",
"E. c #858C91",
"W. c #868992",
"Q. c #8C9294",
"!. c #8E929C",
"~. c #949495",
"^. c #9E9E9E",
"/. c #94969E",
"(. c #949186",
"). c #A59D82",
"_. c #A09D91",
"`. c #ACA383",
"'. c #B6AC83",
"]. c #B1AB93",
"[. c #9B9DA1",
"{. c #9598A2",
"}. c #95A9AC",
"|. c #86B3BB",
" X c #95B3B9",
".X c #A2A2A2",
"XX c #ABAAA6",
"oX c #B2AFA4",
"OX c #C2B996",
"+X c #DBCA88",
"@X c #D8C887",
"#X c #CDC191",
"$X c #E8D587",
"%X c #F3DF83",
"&X c #F2DF8B",
"*X c #E7D797",
"=X c #F5E187",
"-X c #F6E28B",
";X c #FBE68A",
":X c #FFEB8D",
">X c #F9E487",
",X c #FFF18E",
"<X c #FFED91",
"1X c #FAE690",
"2X c #FFF291",
"3X c #FFFA95",
"4X c #CEC4A1",
"5X c #D1C7A1",
"6X c #94BBC2",
"7X c #88CDD9",
"8X c #9BD2DC",
"9X c #9AC9D2",
"0X c #81D8E7",
"qX c #98DBE7",
"wX c #A0DDE8",
"eX c #9EE1ED",
"rX c #9FE5F1",
"tX c #A1E1EC",
"yX c #A1E5F2",
"uX c None",
/* pixels */
"uXuXuXuXuXuXuXuXuXuXuXuXuXuXuXuXuXuXuXuXuXuXuXuXuXuXuXuXq 0 0 $                                 % 0 0 q uXuXuXuXuXuXuXuXuXuXuXuX",
"uXuXuXuXuXuXuXuXuXuXuXuXuXuXuXuXuXuXuXuXuXuXuXuXuXuXuXuX0 0 0 0 % $ $ $ $ $ $ $ $ $ $ $ $ $ $ $ 0 0 0 0 uXuXuXuXuXuXuXuXuXuXuXuX",
"uXuXuXuXuXuXuXuXuXuXuXuXuXuXuXuXuXuXuXuXuXuXuXuXuXuXuXuX. o 7 y } | |  . .| | | | | | | | | | } y 7 o   uXuXuXuXuXuXuXuXuXuXuXuX",
"uXuXuXuXuXuX% o                                             8 { $.:.G.T.T.T.T.T.T.T.T.T.T.c.-.#.{ 8             o % uXuXuXuXuXuX",
"uXuXuXuXq q 7 O .                                           8 ..-.~.[.[.^.^.^.^.^.^.^.^..X^.R.G...8           . O 7 q q uXuXuXuX",
"uXuXuXuX% 7 t ^ / _ ] ] _ _ _ _ _ _ ] _ _ _ _ _ _ _ _ ` ( ( O.:.(..XXXXX.X.X^.^.^.}.^.XXXXXX.X~.:.O.( ( ` ] / / ^ e 7 5 uXuXuXuX",
"uXuXuXuX. O ^ O.j.b.B.B.B.m.B.m.m.m.m.m.B.m.m.m.B.m.m.m.z.z.m.'.].XX.X[.~.T.T.c.p.H.R.~.{..XXX].`.n.z.z.N.V.k.j.O.^ O . uXuXuXuX",
"uXuXuXuX  . / j.V.Z.F.$XF.D.$XD.D.D.D.$XD.D.D.$XD.D.D.D.S.S.C.#XOXXX^.W.-.#.} } } } #.-.W.[.XXOX#X+XF.F.F.$XC.V.j./ .   uXuXuXuX",
"uXuXuXuX    _ k.Z.-X<X2X<X<X<X;X:X;X<X;X<X;X;X<X:X:X:X,X2X<X1X*X4XoX{.G.$.} 7     0 } $.G.{.oX4X*X;X,X,X2X2X-XZ.k._     uXuXuXuX",
"uXuXuXuX    _ m.C.;X3X3X3X2X2X2X2X2X3X2X2X3X2X2X2X2X2X,X2X3X<X*X5XoX{.H.-.$.| } }  .$.-.H.{.oX5X*X:X3X3X3X3X;XD.m._     uXuXuXuX",
"uXuXuXuX    _ n.Z.;X3X3X2X2X<X<X:X2X:X2X<X:X<X2X2X,X:X,X,X,X1X*X4XoX[.!.Q.R.T.T.T.T.R.Q.!.[.oX5X*X<X,X3X3X2X;XZ.b._     uXuXuXuX",
"uXuXuXuX    / k.Z.-X<X2X:X<X;X:X:X<X;X<X;X<X;X:X:X;X:X:X,X,X-X*X4XXX[.[.[..X^.^.^.^..X[.{.[.oX4X*X1X,X,X2X2X=XZ.k._     uXuXuXuX",
"uXuXuXuX    _ b.Z.=X2X2X<X:X:X;X:X;X:X;X:X:X;X:X:X:X;X:X,X:X-X*XOXXX/././..X.XXX.X.X[.[.{./._.OX*X1X:X2X2X,X=XZ.b./     uXuXuXuX",
"uXuXuXuX    _ b.Z.=X<X2X,X;X:X<X<X;X:X:X;X:X:X<X;X<X:X,X,X:X-X$XOX~.W.W.~.~.~.~.~.~.~.!.W.W.).OX+X-X,X,X2X2X=XZ.b._     uXuXuXuX",
"uXuXuXuX    _ k.Z.=X,X2X2X;X;X<X<X:X:X:X<X;X:X;X;X:X;X2X:X,X;X+XOX(.G.G.G.E.T.T.R.T.T.H.G.G.(.OX+X-X,X2X2X2X%XZ.b._     uXuXuXuX",
"uXuXuXuX    _ b.Z.=X2X2X<X:X<X;X;X:X:X;X:X<X:X:X:X<X;X:X2X<X-X+XB.R.-.*.-.p.G.;.;.;.p.G.=.>.v.'.+X-X,X,X2X<X-XZ.k._     uXuXuXuX",
"uXuXuXuX    _ b.Z.%X<X2X<X;X;X<X:X;X;X<X;X;X:X:X:X:X:X:X2X,X-X+XB.c.=.+.=.>.-.-.>.-.-.*.@.@.c.'.+X-X,X3X2X2X=XZ.k._     uXuXuXuX",
"uXuXuXuX    _ k.Z.-X2X2X2X:X<X;X:X:X:X:X<X:X:X:X;X:X:X:X,X,X-X+X].;.@.+.@.*.*.*.*.*.*.@.+.@.c.'.+X-X,X,X2X2X=XZ.n./     uXuXuXuX",
"uXuXuXuX    _ k.A.%X2X2X<X;X:X:X:X<X:X:X;X:X;X<X;X<X:X:X,X,X-X+X'.R.-.G.;.;.G.c.;.;.;.-.*.-.v.'.+X-X,X2X2X2X%XZ.k._     uXuXuXuX",
"uXuXuXuX    _ k.A.-X2X2X:X:X:X:X:X;X;X:X:X<X;X:X:X:X:X:X:X:X;X$XOX'.).).).`.`.`.`.`.`.`.).).'.#X$X;X,X,X2X<X-XZ.k./     uXuXuXuX",
"uXuXuXuX    _ b.Z.=X2X2X2X:X:X<X;X:X:X:X:X<X:X;X<X;X:X:X:X:X;X-XF.+X@X@X@X+X@X@X+X@X@X@X@X@X@X$X&X;X:X2X2X2X=XZ.k._     uXuXuXuX",
"uXuXuXuX    _ b.Z.=X:X2X:X:X;X;X<X<X;X:X:X;X:X<X;X:X:X:X:X;X<X;X>X;X-X-X-X-X-X-X;X-X-X-X-X>X-X;X;X<X;X,X2X2X=XZ.k._     uXuXuXuX",
"uXuXuXuX    / b.Z.=X2X2X<X:X<X:X:X;X:X;X<X;X;X:X;X<X:X;X;X<X:X:X:X,X:X,X,X,X,X,X,X,X<X2X,X,X,X:X<X;X:X<X2X<X=XZ.k._     uXuXuXuX",
"uXuXuXuX    _ b.Z.=X2X2X2X;X;X:X:X:X<X;X:X:X:X:X:X:X:X<X;X:X:X:X:X:X,X,X2X:X,X:X,X:X2X:X:X,X,X:X;X<X:X<X2X2X=XZ.n./     uXuXuXuX",
"uXuXuXuX    _ b.Z.=X<X2X:X:X;X:X:X<X;X<X:X:X:X:X;X:X:X;X:X;X:X:X:X:X:X:X:X:X:X:X:X:X:X:X:X:X:X:X:X:X;X,X2X<X&XZ.k./     uXuXuXuX",
"uXuXuXuX    _ b.Z.&X2X2X,X:X:X:X:X;X;X:X:X:X:X:X:X:X:X:X:X:X:X:X:X:X:X:X:X:X;X:X:X:X:X:X:X:X:X:X:X;X<X:X2X,X=XZ.k._     uXuXuXuX",
"uXuXuXuX    _ b.Z.=X2X2X:X:X:X:X:X:X:X:X:X:X:X:X:X:X:X:X:X:X:X:X:X:X:X:X:X:X:X:X:X:X:X:X:X:X:X:X:X:X<X<X2X2X%XZ.k._     uXuXuXuX",
"uXuXuXuX    _ b.Z.-X2X2X,X:X:X:X:X:X:X<X:X:X:X:X:X:X:X;X:X:X:X;X:X:X:X:X:X:X:X<X:X:X:X:X:X:X:X:X<X:X;X<X3X2X-XZ.n._     uXuXuXuX",
"uXuXuXuX    _ b.Z.-X2X2X<X:X:X:X:X:X:X:X:X:X:X:X:X;X:X:X:X:X:X:X:X:X:X:X:X:X:X:X:X:X:X:X:X;X:X;X;X<X:X2X2X2X-XA.b._     uXuXuXuX",
"uXuXuXuX    / b.A.%X:X,X;X:X:X;X;X;X:X;X:X>X:X:X;X;X:X;X;X>X>X:X;X;X;X;X;X;X;X;X:X;X;X;X;X;X:X:X;X;X;X;X,X:X%XA.b./     uXuXuXuX",
"uXuXuXuX    / b.A.%X:X:X;X;X;X:X;X>X;X;X>X>X>X;X:X>X>X>X>X>X>X>X>X;X;X;X>X>X:X;X;X;X>X>X;X;X>X>X;X>X:X:X:X:X%XA.l._     uXuXuXuX",
"uXuXuXuX  . / l.V.F.>X>X>X=X=XF.=X=XF.>X%X%X=XF.=X%X=X=X%X%X=X=X>XF.>XF.=X%X=X%XF.=X=X%X%X=X%X%X%X%X%X>X>X;XF.V.l./ .   uXuXuXuX",
"uXuXuXuX  o ( j.V.V.S.S.S.S.S.S.S.V.S.S.C.S.S.Z.C.A.S.S.C.A.S.S.S.C.C.C.C.C.C.C.Z.S.S.A.C.C.A.C.C.C.C.S.S.S.V.V.j.( o   uXuXuXuX",
"uXuXuXuX. O ^ O.j.x.N.N.M.z.M.z.M.V.z.N.z.M.M.N.z.V.z.N.M.V.z.N.M.z.M.N.M.M.M.M.M.M.z.V.M.z.V.z.M.M.M.M.V.N.z.j.O.Y O . uXuXuXuX",
"uXuXuXuXO 5 y / _ O.r.r.y.y.e.e.y.y.e.e.y.y.e.e.y.y.e.e.y.y.e.e.y.e.e.e.e.e.e.e.e.e.e.e.y.e.e.y.y.y.y.y.r.O.] O./ t 5 O uXuXuXuX",
"uXuXuXuX0 0 0 7 # O % , s x D C C C x x M C x C x C x x x p x x C x x x x x x x x x x C C x x x C x x s , % O @ 9 0 0 0 uXuXuXuX",
"uXuXuXuXuXq 7 O o       < u u u u u u u u u u u u u u u u u u u u u u u u u u u u u u u u u u u u u u <     . o O 7 q uXuXuXuXuX",
"uXuXuXuXuXuXuXO O O O > s C V V V V V V V V V V V V V V V V V V D V C h g g g g g g g g g g g g h Z D M > O O O O uXuXuXuXuXuXuX",
"uXuXuXuXuXuXuXuX4 9 e I R J Q W 5.) ) W W W W ) W W W W W W K K ) W ) L A A A A A A A A A A P S S W E H I e 9 4 uXuXuXuXuXuXuXuX",
"uXuXuXuXuXuXuXuX4 5 e I T W 5.W K J J J J J J J J K J J J J J L S L ) o.X.&.%.%.%.%.%.%.%.%.&.X.q.9.L H I e 9 4 uXuXuXuXuXuXuXuX",
"uXuXuXuXuXuXuXuX4 5 e I T ) Q K G F N x F F F F F F F N F N F P A A ' &.H.J.K.K.K.J.K.K.K.K.J.H.&.0.A C c e 9 4 uXuXuXuXuXuXuXuX",
"uXuXuXuXuXuXuX@ 4 5 e I T W K J F n v 1 v b b v z z b z v v c c h Z o.;.K.L.I.P.P.P.P.P.P.I.L.K.;.o.Z h c w 5 4 @ uXuXuXuXuXuXuX",
"uXuXuXuXuXuXuX@ 4 5 e I T E W G x v * * * - - - = = 2 = * * 1 i g Z X.H.L.I.Y.Y.U.U.I.U.Y.U.I.L.H.X.Z f p w 5 4 @ uXuXuXuXuXuXuX",
"uXuXuXuXuXuXuX@ 4 5 e I E W K G N v * ; & X X & ; = 2 2 = = z i g j t.J.L.7X0XY.0X7X0XY.0X0X7X|.E.w.j f p w 5 4 @ uXuXuXuXuXuXuX",
"uXuXuXuXuXuXuX@ 4 5 e I T E K J F n , ; . o o X ; s z m v , c p g j X.E.|.8XqXqXqXqX8XqXqXqX7X|.E.w.Z f p 0 5 4 @ uXuXuXuXuXuXuX",
"uXuXuXuXuXuXuX@ 4 5 e I T E K J F n z v z m B n n n z v v v n i g j X.Q. X8XeXeXqX8XqXqXeXeX8X XQ.w.j f p w 5 @ @ uXuXuXuXuXuXuX",
"uXuXuXuXuXuXuX@ 4 5 r I T E K D x s B ~ a.a.a.a.~ N a > , z c p g j t.Q. X8XeXrXtXwXwXtXrXeXqX6XQ.t.j f p w 9 4 @ uXuXuXuXuXuXuX",
"uXuXuXuXuXuXuX@ 6 7 e U T K 8.D a > ! a.d.f.f.d.a.! : & : v z h g k t.Q.9X8XrXrXrXeXeXyXrXrX8X6XQ.X.k f i w 9 4 @ uXuXuXuXuXuXuX",
"uXuXuXuXuXuXuX@ 4 5 e I T W K l a : ! s.f.h.h.f.s.~ ; O ; v z p g k w.Q. X8XeXyXtXwXqXtXyXrXqX6XQ.t.k f p w 5 4 @ uXuXuXuXuXuXuX",
"uXuXuXuXuXuXuX@ 4 5 e I T K K l a : ! s.f.h.h.f.s.! ; o ; v c p g Z q.R.}.9X8X8X8X9X8X8X8X8X6X}.R.X.Z f p w 5 4 @ uXuXuXuXuXuXuX",
"uXuXuXuXuXuXuX@ 4 5 e I T K K D a a [ a.s.d.g.s.a.[ : ; : v c c h A q.p.Q.}.}. X}.}.}.}.}.}.}.(.p.q.A p z e 5 4 @ uXuXuXuXuXuXuX",
"uXuXuXuXuXuXuX@ 4 5 e I T E K J x s B [ ~ a.7.~ ! B s a s v B x P S 9.q.t.p.i.i.i.u.i.i.i.i.u.t.q.) L P M e 5 4 @ uXuXuXuXuXuXuX",
"uXuXuXuXuXuXuX@ 4 5 e I T E K E N B v > : : : > > v n m v v n N G W W Q 3.3.3.3.1.3.3.3.3.3.3.3.4.5.E R I e 5 4 @ uXuXuXuXuXuXuX",
"uXuXuXuXuXuXuX@ 4 5 e I T K K J H M s : & o + ; > v n n m v M F R ) Q 1.2.<.,.,.,.,.,.,.,.,.<.2.1.Q ) R Y e 5 4 @ uXuXuXuXuXuXuX",
"uXuXuXuXuXuXuX@ 4 5 e I T K W K H M v s a a a a s M M n m m M F G W Q 6.1.1.1.1.1.1.1.1.1.1.1.1.4.5.J R I e 9 4 @ uXuXuXuXuXuXuX",
"uXuXuXuXuXuXuX@ 4 5 e I T E K J F M v v v b b b b b b v z v M N G W 5.W 5.W K W K W 5.5.W W W W 5.W E R I e 5 4 @ uXuXuXuXuXuXuX",
"uXuXuXuXuXuXuX@ 4 5 r I T ) K J F n v = v z z v v v v v 1 1 n N G W 5.5.5.W W W W W W W W W W 5.5.5.W R I e 9 4 @ uXuXuXuXuXuXuX",
"uXuXuXuXuXuXuX@ 4 5 r U ) 9.5.J H n - * = = 1 v 1 1 1 = * - n F G W 5.5.5.5.5.5.W 8.5.5.5.5.5.5.5.5.) T U e 9 4 @ uXuXuXuXuXuXuX",
"uXuXuXuXuXuXuX@ 4 5 r R ) 8.W K H uXuXuXuXuXuXuXuXuXuXuXuXuXuXH G W 9.9.9.8.5.8.8.8.8.8.5.) 5.5.5.5.) T U r 5 4 @ uXuXuXuXuXuXuX",
"uXuXuXuXuXuXuX@ 4 5 w Y R J K J uXuXuXuXuXuXuXuXuXuXuXuXuXuXuXuXG W W W W W W W W W J W W W W W 5.5.J R Y w 5 4 @ uXuXuXuXuXuXuX",
"uXuXuXuXuXuXuXuX@ 5 w m N G J H uXuXuXuXuXuXuXuXuXuXuXuXuXuXuXuXF G G J G G G J J G G G G G J J J J H N m q % @ uXuXuXuXuXuXuXuX",
"uXuXuXuXuXuXuXuXuXuXuXuXuXuXuXuXuXuXuXuXuXuXuXuXuXuXuXuXuXuXuXuXuXuXuXuXuXuXuXuXuXuXuXuXuXuXuXuXuXuXuXuXuXuXuXuXuXuXuXuXuXuXuXuX",
"uXuXuXuXuXuXuXuXuXuXuXuXuXuXuXuXuXuXuXuXuXuXuXuXuXuXuXuXuXuXuXuXuXuXuXuXuXuXuXuXuXuXuXuXuXuXuXuXuXuXuXuXuXuXuXuXuXuXuXuXuXuXuXuX",
"uXuXuXuXuXuXuXuXuXuXuXuXuXuXuXuXuXuXuXuXuXuXuXuXuXuXuXuXuXuXuXuXuXuXuXuXuXuXuXuXuXuXuXuXuXuXuXuXuXuXuXuXuXuXuXuXuXuXuXuXuXuXuXuX"
};
