/* XPM */
static char *result[] = {
/* columns rows colors chars-per-pixel */
"64 64 48 1 ",
"  c #000007",
". c #000108",
"X c #020908",
"o c #0D0C08",
"O c #140E08",
"+ c #190F08",
"@ c #1E1108",
"# c #201208",
"$ c #291608",
"% c #2E1808",
"& c #351B08",
"* c #3B1E08",
"= c #3F2008",
"- c #432208",
"; c #492608",
": c #532B08",
"> c #5A2E08",
", c #5F3108",
"< c #633308",
"1 c #693608",
"2 c #6D3808",
"3 c #753C08",
"4 c #793F09",
"5 c #7D4109",
"6 c #834409",
"7 c #884709",
"8 c #8C4909",
"9 c #924C09",
"0 c #9C5209",
"q c #A45609",
"w c #AC5B09",
"e c #B25E09",
"r c #B76009",
"t c #BC6309",
"y c #C2660A",
"u c #C5680A",
"i c #CC6C0A",
"p c #D16F0A",
"a c #D5710A",
"s c #DB740A",
"d c #E0770A",
"f c #E4790A",
"g c #EC7D0B",
"h c #F07F0B",
"j c #F3810B",
"k c #FB860B",
"l c #FF8A0B",
"z c #FF910B",
/* pixels */
"#@############@#@####@##@##########@#######@###@#########@##@###",
"#######@##@###############@####@#######@@@#########@@#########@#",
"####@#############@###@#@#######@oX....Xo@#######@####@###@#@###",
"###@####@#####@###############$$O........o$#####################",
"####@##@#@###@###@#####@######$#+.  .....+#$####################",
"#@###########################+..$:346653,*oX+##@###@@######@###@",
"######@#############@######$#...+4wupppt9>..X##########@@####@##",
"##@#######@####@#@#######@#$#...*qphlllfe2...###@###############",
"###@##@#@##@#######@##@###+O@$#-8uhlzllfe1...#@########@########",
"###############@#########+X.o>6wuflllgae8>..X###@##@####@####@##",
"@####@###@###@###@########..X4esjlllft8>-&oX+#######@##########@",
"###################@#@####...6ijlzzka0#..X#################@####",
"#@#####@#######@######@##@...8ikzzzka9....$$#@@###########@#@###",
"################@########@...6ijzzlks0*..o#######@##############",
"#####@###@###@############...8ujlzzka0;..O@######@############@#",
"##@#########+X...............6ujlzzlsq&...........X+#####@##@###",
"##########$$X................6uhlzzls0.............X$$##########",
"#@##@#######+oX..X.XX.X..X...6ihzzzkaq*...X.X.XX.Xo+############",
"########@X..*<699888888896< .5ijllgsiw966888888886<*..X@######@#",
"##@####$@...-8tpaiipipiaai0=.2illgt90tippiiiiiaapt9=...@$###@###",
"#######$@...<rfklkkjjkjlljy3.1illi5&6ijlkkjkjkklkfe1...@########",
"#####@X.o&-1qajzzzlllllzllfw58yfft5<qslzzlzlzllzlkpq1-&o X######",
"###$#O.. >9tagllllllllzllljsurwwwqwtagllllllllllllgat9>.  o#$##@",
"###$#o.. 4yflllllllllllllllljaq>,qajkllllllllllllllkfy4.. o$####",
"@#@OO$#$2wdlzllllllllllllklllge,,wglzzlllllllklllllzlsw2&$$OO@@@",
"##O..-30tahlzzlllllllzlllllllhpewajlllllllllllllllzzljar93-..+#@",
"##X..>0igkklllzlzzlllllllllllkhfgjkllllllllllzlzlllllkkgi0:..X##",
"##X..<efllllkkkjjjkjjjklllllllllllllkklkkkjkjkjkjkkkllzlge<..X##",
"##...:eglzlljgsiiipiiiagkllllllllllllllkfaiiiiiiisfjllzzge:...#$",
"$#...&qdlzzljiq6568645qajlllllllllklllzjaq6468656qpjlzzlsq&...#$",
"#@o..1eflzzlgr2 ..X...1efllllllklllllllfe2...X...3tglzllfe1..o@@",
".O;16wpgllzlgw;  .....&8ysjkllllklllkjdt8&.......;wflzllgpw61;O.",
".X2qisjjllllgw;.......%>5qijlzlllllljiq5>$.....  ;efllllkgsiq2X.",
"..5yjllkllllgt2...##@@+..:qsllllllllsq:..+@##@...2tgllllllljy5..",
"..6ikzzlllllgpw5>*........3esjklkkgae3....X...=>4wphlllllzzki6..",
"..6ujzzlllllkgsu0<........@<9tdkkfy91@........,0ysgkllkklllji6..",
"..6yjlllklkllllgy6..........@8akka8+..........6uglllllklkzkju6..",
"..6ujllllklkllzlse4<254544<;:0akka0>;1445442<5edlzlllllkllljy6..",
"..5ujlllklklllllhauttyyyyyterijllgptetyyyuyttyajllllklklllljy6..",
"..6ujllllklkklllkjhhjhjhjjhjjjlllljhgjhjgjjjhhjklllllklklzljy6..",
"..5uhlllklklkllkllllzlzlllzlllkjjklllzlzllllllllkllklklkllljt6X.",
"..6uhllllklklkklllllllzlllzzzlduudlzzzlllzlzlllllkllklklllkju5..",
"..6yjlllklkllklkllkllllllllzzjt77yhllllllllllklkkllklklkllljy6..",
"..6yjzlllkllklklkllkklklllllks9@@9sklllllllllklllkklkllkllzjy6..",
"..6ujzzllklklklklklklllllkjsiq,..,qifjkllllllllkklklklkllzlji6..",
"..6ijzzlkkklllklklkllllzlksr5*....*5esklllllllkllklklklklzzki6..",
"..6yjlllllklkllklklllklllkp0*..&&..*0aklllkllllklkklklkllllgy5..",
"..1qudgkkllklkklllljdssjllfy969q0969tflljsafjlllklkllllljjfuq2..",
".O;16wpglllllklklllgy0wpklljdssffsssjllkpw0ygllllklkllllgpw61;o.",
"@#o..1edllllklklllls0;>egllklklkllllkllge>;qslllklklllllfe1..o@@",
"$#...&qdlzlllklklzla9..6ufjfggggggjfjgfi6. 9alzllklkllzlfq*...#$",
"$#...:eflzllllklllls9..-8wrreeeeeerwwrw9-. 9alzlllklllzlfw:...#$",
"@#X..<egllllklkllzldq=..=::::::::::::::*..*qdlllklllllllfe<..X##",
"##X..>qijkklllkllllft9>@.X..............+>9yflllkllllkkgi0:..X##",
"##O..-39rajlzlllllljfpw5+..............+5wpfjklzlzzlljat03-..+##",
"##@OO$#&2wslzzzlllkklksw,..............<eskkllllllzzlsw2$$$OO+#@",
"###$#o...5ygkkhjjllllzja0>;<11111111>;>0pjzzllljjhjkgt5...o#####",
"####$O...,0tuytidjlzzzlgptetytyytyyytttpjlzzzljsituit0<...O$$###",
"#####@X.o;<352<8yglzzzllkjhjhjjjjjjjjjhklllzzljt8<243<;o.X######",
"#########X.....&0ajlljkkkklkkklkkklkkkkkkkjklja0*.....X#########",
"#####@#$@.......4wiaaiiaaasaaasaasaaasaaaiiaaiw4.......@$#####@#",
"#######$#+XX...@:489888899999999999999998888984:@....X+@########",
"###@####@#@##@#@+X.XX.X..XX.X..XX.X..XX.X.X.X.X+@#########@#####",
"#####@#######$$+................................+$$###########@#"
};
