/* XPM */
static char *result[] = {
/* columns rows colors chars-per-pixel */
"64 64 98 2 ",
"   c #021316",
".  c #011419",
"X  c #00191F",
"o  c #2B221D",
"O  c #3F3A1F",
"+  c #0F0024",
"@  c #120124",
"#  c #1F0024",
"$  c #160B24",
"%  c #001424",
"&  c #041D22",
"*  c #0C1924",
"=  c #220021",
"-  c #220C22",
";  c #231323",
":  c #2E1422",
">  c #231D23",
",  c #301123",
"<  c #1B3625",
"1  c #232323",
"2  c #2F2522",
"3  c #262D26",
"4  c #282B28",
"5  c #312323",
"6  c #352925",
"7  c #243626",
"8  c #2A3722",
"9  c #253B25",
"0  c #283228",
"q  c #472A1D",
"w  c #5A261C",
"e  c #4F3D1C",
"r  c #5D311A",
"t  c #6B2E17",
"y  c #642B1B",
"u  c #6A2E19",
"i  c #67351F",
"p  c #6A3719",
"a  c #65381F",
"s  c #6D3919",
"d  c #71311A",
"f  c #763D1D",
"g  c #7A3D1C",
"h  c #471E20",
"j  c #4D1F21",
"k  c #4D2E20",
"l  c #522D23",
"z  c #563424",
"x  c #5A3626",
"c  c #6D3C21",
"v  c #733F23",
"b  c #1D5625",
"n  c #264327",
"m  c #264A27",
"M  c #274428",
"N  c #284729",
"B  c #284829",
"V  c #255325",
"C  c #235B25",
"Z  c #29552A",
"A  c #355721",
"S  c #1E6D23",
"D  c #0C7F24",
"F  c #147D23",
"G  c #1E7B23",
"H  c #226325",
"J  c #206E24",
"K  c #2A6C22",
"L  c #276429",
"P  c #29672C",
"I  c #2B6A2D",
"U  c #326D21",
"Y  c #396D20",
"T  c #207124",
"R  c #207A23",
"E  c #2B722E",
"W  c #267A29",
"Q  c #2D7430",
"!  c #2D7F30",
"~  c #5C4019",
"^  c #42581F",
"/  c #4D591D",
"(  c #7C421E",
")  c #81441E",
"_  c #844620",
"`  c #884820",
"'  c #1D8123",
"]  c #25872A",
"[  c #2A832E",
"{  c #268B2B",
"}  c #2F8C33",
"|  c #308E34",
" . c #2C9131",
".. c #309134",
"X. c #319B36",
"o. c #32A037",
"O. c #33A238",
"+. c None",
/* pixels */
"+.+.+.+.+.+.+.1 1 1 ; = = = = = = = = = = = = = = = = = = = = = = = = = = = = = = = = = = = = = = = = = = ; 1 1 1 +.+.+.+.+.+.+.",
"+.+.+.+.+.+.+.1 1 1 > ; - - - - - $ - - - - - - - - - - - - - - - - - - - - - - - $ - - - - - - - - - - ; > 4 1 1 +.+.+.+.+.+.+.",
"+.+.+.+.+.+.+.> 1 3 9 M m V B m m m m m m m m m m m m m m m m m m m m m m m m m m m m m m m m m m m m m M 9 3 > > +.+.+.+.+.+.+.",
"+.+.+.+.+.+.+.= ; 9 Z I E E E E E E E E E E K E E E E E E E E E T E E E E E T E E E E E E E E E E E E T I Z 8 ; = +.+.+.+.+.+.+.",
"+.+.+.+.+.+.+.= - M I [ }  ...| } } }  .} } } }  .}  .} } }  .} }  .}  .} } } } } }  .} } } } }  ..... .! I N - = +.+.+.+.+.+.+.",
"+.+.+.+.+.+.+.= = N Q  .X.O.O.X.o.X.X.X.X.o.X.X.X.X.o.X.X.X.X.X.X.X.X.X.X.X.X.X.X.X.X.X.o.X.X.X.X.o.o.o.| E B = = +.+.+.+.+.+.+.",
"+.+.+.+.+.+.+.= = B Q ..O.O.O.O.o.o.o.o.o.o.o.o.o.o.o.o.o.o.o.o.O.o.o.o.o.o.o.o.o.o.o.O.O.o.O.O.o.O.O.O...Q B = = +.+.+.+.+.+.+.",
"+.+.+.+.+.+.+.= = B E } o.O.O.X.X.o.X.o.X.o.o.X.X.X.o.X.X.o.X.o.X.X.X.o.X.X.o.o.o.X.X.o.X.X.X.X.X.o.O.O.| E B = = +.+.+.+.+.+.+.",
"+.+.+.+.+.+.+.= = B E } X.X.X.X.X.X.X.X.X.X.X.X.X.X.X.X.X.X.X.X.X.X.X.X.X.X.X.X.X.X.X.X.X.X.X.X.X.O.O.X.} Q B = = +.+.+.+.+.+.+.",
"+.+.+.+.+.+.+.= = B E } X.X.O.X.X.X.X.X.X.X.X...X.X.X.X.X.X.X.X.X.X.X.X.X.X.X.X.X.X...X.X.X.X.X.X.X.X.X.} Q B = = +.+.+.+.+.+.+.",
"+.+.+.+.+.+.+.= = B Q | X.O.X.X...X.X.X.X.X.X.X.X.X. .X.X.X.X.X.X.X.X.X.X.X.X...X.X.X.X.X.X.X.X.X.X.O.X.} E B = = +.+.+.+.+.+.+.",
"+.+.+.+.+.+.+.= = B Q | X.O.X.X.X.X.X.X.X.X.X.X.X.X.X.X.X.X.X.X.X.X.X.X.X.X.X.X.X.X.X.X. .X.X.X.X.X.X.X.| E B = = +.+.+.+.+.+.+.",
"+.+.+.+.+.+.+.= = B I } X.X.X.X.X.X.X.X.X.X.X.X.X.X.X.X.X...X.X.X.X.X.X.X.X.X.X.X.X...X.X.X.X.X.X.O.O.X.} E M = = +.+.+.+.+.+.+.",
"+.+.+.+.+.+.+.= = M Q } X.O.O.X.X.X.X.X.X.X.X.X.X.X.X.X.X.X.X.X.X.X.X.X.X.X.X.X.X.X.X.X.X.X.X.X.X.X.O.X.} Q B = = +.+.+.+.+.+.+.",
"+.+.+.+.+.+.+.= = B Q | X.O.X.X.X.X.X.X.X.X.X.X.X.X...X.X.X.X.X.X.X.X. .X.X.X.X.X.X.X.X.X.X.X.X.X.O.o.X.} E m = = +.+.+.+.+.+.+.",
"+.+.+.+.+.+.+.= = B Q | X.O.X.X.X.X.X.X...X.X.X.X.X.X.X.X.X.X.X.X.X.X.X.X.X.X.X.X.X.X.X.X.X.X.X.X.X.o.X.} Q M = = +.+.+.+.+.+.+.",
"+.+.+.+.+.+.+.= = B Q } X.X.X.X.X.X.X.X.X.X.X.X.X.X.X.X.X.X.X.X.X.X.X...X.X.X.X.X.X.X.X.X.X.X.X.X.X.O.X.} Q M = = +.+.+.+.+.+.+.",
"+.+.+.+.+.+.+.= = B Q } X.O.X.X.X.X.X.X.X.X.X.X.X.X.X.X.X.X.X.X.X.X.X.X.X.X.X.X.X.X.X.X.X.X.X.X.X.X.o.X.} Q B = = +.+.+.+.+.+.+.",
"+.+.+.+.+.+.+.= = B I | X.X.X.X.X.X.X.X.X.X...X.X.X.X.X.X.X.X.X.X.X.X.X.X.X.X.X.X.X.X.X.X.X.X.X.X.o.o.X.| I B = = +.+.+.+.+.+.+.",
"+.+.+.+.+.+.+.= = M Q } X.O.O.X.X.X.X.X.X.X.X.X.X.X.X.X...X.X.X.X.X.X.X.X.X.X.X.X.X...X.X.X.X.X.X.o.o.X.| Q B = = +.+.+.+.+.+.+.",
"+.+.+.+.+.+.+.= = B Q } X.O.X.X.X.X.X.X.X.X.X.X.X.X.X.X.X.X.X.X.X.X.X.X.X.X.X...X.X.X.X...X.X.X.X.X.O.X.| E B = = +.+.+.+.+.+.+.",
"+.+.+.+.+.+.+.= = B Q } X.O.X.X.X.X.X.X.X.X.X.X.X.X.X...X. .X.X.X.X.X.X.X.X.X.X.X.X.X.X.X.X.X.X.X.X.o.X.| E B = = +.+.+.+.+.+.+.",
"+.+.+.+.+.+.+.= = B E | X.o.X.X.X.X.X.X...X.X.X.X.X.X.X.X.X.X.X.X.X.X.X.X.X.X.X.X.X...X.X.X.X.X.X.X.O.X.| E M = = +.+.+.+.+.+.+.",
"+.+.+.+.+.+.+.= = M E | X.o.O.X.X.X.X.X.X.X.X.X.X.X.X.X.X.X.X.X.X...X.X.X.X.X.X.X.X.X.X.X.X.X.X.X.o.o.X.} E B = = +.+.+.+.+.+.+.",
"+.+.+.+.+.+.+.= = M Q } X.O.X.X.X.X.X...X.X.X.X.X.X.X.X.X.X.X.X.X.X.X.X.X. .X.X.X.X.X.X.X.X.X.X.X.X.O.X.} Q B = = +.+.+.+.+.+.+.",
"+.+.+.+.+.+.+.= = m E } X.O.X.X.X.X.X.X.X.X.X.X.X.X.X.X.X.X.X.X.X.X.X.X.X.X.X.X.X.X.X.X...X.X.X.X.X.O.X.} Q B = = +.+.+.+.+.+.+.",
"+.+.+.+.+.+.+.= = B Q } X.X.X.X.X.X.X.X.X.X.X.X.X.X.X.X.X.X.X.X.X.X.X.X.X.X.X.X.X.X.X.X.X.X.X.X.X.X.O.X.} E B = = +.+.+.+.+.+.+.",
"+.+.+.+.+.+.+.= = M E } X.O.O.X.X.X.X.X.X.X.X.X.X.X...X.X.X.X.X.X.X.X.X.X.X.X.X.X.X.X.X.X.X.X.X.X.O.X.X.| E B = = +.+.+.+.+.+.+.",
"+.+.+.+.+.+.+.= = B E | X.O.O.X.X.X.X.X.X.o.X.X.X.X.X.X.O.X.X.X.X.X.X.X.X.X.X.X.X.X.X.X.X.O.X.X.X.O.O.X.| Q M = = +.+.+.+.+.+.+.",
"+.+.+.+.+.+.+.= = B Q | X.O.O.X.X.X.X.X.X.X.o.X.O.X.X.X.X.X.X.X.o.X.X.X.X.X.X.O.X.X.X.O.X.X.X.X.X.O.O.X.| Q B = = +.+.+.+.+.+.+.",
"+.+.+.+.+.+.+.= = M Q } X.O.X.X.X.X.X.X.X.X.X. .X...X.X.X.X.X.X.X.X.X.X.X.X.X.X.X.X. .X.X.X.X.X.X.X.O.X.} E m = = +.+.+.+.+.+.+.",
"+.+.+.+.+.+.+.= - M I [  . . . . . .}  . . . . . . . . . . .}  . . . . .}  .}  . . . . . . . . . . . . .[ I M = = +.+.+.+.+.+.+.",
"+.+.+.+.+.+.+.= - n L W { { { ] ] ] ] ' ] ] ] ] ] ] ] ] { { ] ] ] ] ] ] ] ] ] ] ] ] ] ] ] ] ] ] ] { { ] R K n - = +.+.+.+.+.+.+.",
"+.+.+.+.+.+.+.= ; n C T G ' G G ' R R G G G G G G ' G G G G G G G G G G ' G ' G G G G G G G R F ' ' ] R S C 9 ; = +.+.+.+.+.+.+.",
"+.+.+.+.+.+.+.= ; 8 C S G F G G G G F G G G S G G G G S G G G S G S G S G G G G G G G G G G S S G G G G S C 9 ; = +.+.+.+.+.+.+.",
"+.+.+.+.+.+.+.= ; 9 V J G G G G G G S G G G G G G G F G S G G G G G F G G S G G G G S G G G F G G F G G S H 9 ; = +.+.+.+.+.+.+.",
"+.+.+.+.+.+.+.= ; 9 C T G ' G G G G S G G G G G G G G S G G T G G G G G G G G S G G G G G G R G G G ' G S C 9 ; = +.+.+.+.+.+.+.",
"+.+.+.+.+.+.+.= ; 9 C T G G G G G G G G G R G R G G G G G G G G G G G G G G G G G R G R G G G G G G ' G S C 9 ; = +.+.+.+.+.+.+.",
"+.+.+.+.+.+.+.= ; 9 H S R ' G G G G G G G G G G G G G G G G G G G G G G G G G G G G R G R G G G G G G G T C 8 ; = +.+.+.+.+.+.+.",
"+.+.+.+.+.+.+.= ; 9 C S G ' ' G G G G G G G G G G G G G G G G G G G G G G G G G G G G G G G G R G G G G S H 8 ; = +.+.+.+.+.+.+.",
"+.+.+.+.+.+.+.= ; 9 C T G ' G G G G G G G R G G G G G G G G G G G G G G G G G G G G G G R G G G G G ' G S C 9 ; = +.+.+.+.+.+.+.",
"+.+.+.+.+.+.+.= ; 9 C S G ' ' G G G R G G G G G G G G G G G G G G G G G G G G G G G G G G G G G R ' ' G T C 9 ; = +.+.+.+.+.+.+.",
"+.+.+.+.+.+.+.= ; 9 C T ' ' ' G R ' R G G G ' G G F D D F D D F F F F F D F ' G ' G G G ' G G G ' ' ' G T H 9 ; = +.+.+.+.+.+.+.",
"+.+.+.+.+.+.+.= ; 9 H T ' ' ' ' ' R ' ' ' ' ' ' F F D ' ' D D D D D D D D D ' F ' ' G ' R ' ' G ' ' ' ' T H 9 - = +.+.+.+.+.+.+.",
"+.+.+.+.+.+.+.= ; 9 C S G G G G G G G G R G G G G G R R R R R G R R G R R R G G G G G G G G G G G G G G T C 9 ; = +.+.+.+.+.+.+.",
"+.+.+.+.+.+.+.= > 8 V H T T T T J S T T S S S J K K Y Y Y Y Y Y Y Y Y Y Y Y K K S S S S J S J S J T T T b Z 9 > = +.+.+.+.+.+.+.",
"+.+.+.+.+.+.+.: > 0 N m C C C V C V b V V b b V A ^ / / / / / / / / / / / / ^ A V b b C V C V C C C C C Z N 0 > : +.+.+.+.+.+.+.",
"+.+.+.+.+.+.+.1 1 3 0 7 9 9 9 7 9 9 9 8 9 < < 8 O ~ ~ ~ ~ ~ a e r ~ ~ ~ ~ ~ ~ O 8 < < 7 7 9 9 9 7 7 9 9 0 0 4 1 1 +.+.+.+.+.+.+.",
"+.+.+.+.+.+.+.4 1 > > ; - - - - - - - , - $ $ : h l y d t u u u u u u t u u w h : $ $ - - , - - - - - - ; > > 1 4 +.+.+.+.+.+.+.",
"+.+.+.+.+.+.+.+.1 > ; = = = = = = = = = # + @ , j y d d d t d d t d t d d t y j , @ + # = = = = = = = = = : 1 1 +.+.+.+.+.+.+.+.",
"+.+.+.+.+.+.+.+.+.+.+.+.+.+.+.+.+.+.+.+.+.% * 5 k c d g g f f f g f f g g f i z 5 * % +.+.+.+.+.+.+.+.+.+.+.+.+.+.+.+.+.+.+.+.+.",
"+.+.+.+.+.+.+.+.+.+.+.+.+.+.+.+.+.+.+.+.+.& & 6 l c g _ ( ( ( ( ( g ( ) ( g a z 6 & & +.+.+.+.+.+.+.+.+.+.+.+.+.+.+.+.+.+.+.+.+.",
"+.+.+.+.+.+.+.+.+.+.+.+.+.+.+.+.+.+.+.+.+.& & 6 x c ( ( ) ( ( ( ( ( ( _ ( ( c x 6 & & +.+.+.+.+.+.+.+.+.+.+.+.+.+.+.+.+.+.+.+.+.",
"+.+.+.+.+.+.+.+.+.+.+.+.+.+.+.+.+.+.+.+.+.X & 6 z c ( ) ) ( ( ( ( ( ( ( ( ( c z 6 & & +.+.+.+.+.+.+.+.+.+.+.+.+.+.+.+.+.+.+.+.+.",
"+.+.+.+.+.+.+.+.+.+.+.+.+.+.+.+.+.+.+.+.+.X * 6 z c v ( ( ( ( ( ( ( ( ( ) ( a z 6 & % +.+.+.+.+.+.+.+.+.+.+.+.+.+.+.+.+.+.+.+.+.",
"+.+.+.+.+.+.+.+.+.+.+.+.+.+.+.+.+.+.+.+.. X & 6 z c g ) ( ( ( g ( ( ( ( ( ( c z 6 & % . +.+.+.+.+.+.+.+.+.+.+.+.+.+.+.+.+.+.+.+.",
"+.+.+.+.+.+.+.+.+.+.+.+.+.+.+.+.+.+.+.+.. X & 6 x c ( ) _ ( ( ( ( _ ( _ _ ( c x 6 & X   +.+.+.+.+.+.+.+.+.+.+.+.+.+.+.+.+.+.+.+.",
"+.+.+.+.+.+.+.+.+.+.+.+.+.+.+.+.+.+.+.+.. X & 6 x v _ ` ` _ ` _ _ _ _ ` ` _ v x 6 & &   +.+.+.+.+.+.+.+.+.+.+.+.+.+.+.+.+.+.+.+.",
"+.+.+.+.+.+.+.+.+.+.+.+.+.+.+.+.+.+.+.+.+.X & 6 x c ( ( _ ( ( ( ( ( ( ( ( ( c x 6 & X +.+.+.+.+.+.+.+.+.+.+.+.+.+.+.+.+.+.+.+.+.",
"+.+.+.+.+.+.+.+.+.+.+.+.+.+.+.+.+.+.+.+.+.X & 5 k c f ( ( f ( f f f ( ( ( f c k 2 & X +.+.+.+.+.+.+.+.+.+.+.+.+.+.+.+.+.+.+.+.+.",
"+.+.+.+.+.+.+.+.+.+.+.+.+.+.+.+.+.+.+.+.+.. X o q r p s s s s s s s s s s p r q 2 % . +.+.+.+.+.+.+.+.+.+.+.+.+.+.+.+.+.+.+.+.+.",
"+.+.+.+.+.+.+.+.+.+.+.+.+.+.+.+.+.+.+.+.+.+.+.+.+.+.+.+.+.+.+.+.+.+.+.+.+.+.+.+.+.+.+.+.+.+.+.+.+.+.+.+.+.+.+.+.+.+.+.+.+.+.+.+.",
"+.+.+.+.+.+.+.+.+.+.+.+.+.+.+.+.+.+.+.+.+.+.+.+.+.+.+.+.+.+.+.+.+.+.+.+.+.+.+.+.+.+.+.+.+.+.+.+.+.+.+.+.+.+.+.+.+.+.+.+.+.+.+.+.",
"+.+.+.+.+.+.+.+.+.+.+.+.+.+.+.+.+.+.+.+.+.+.+.+.+.+.+.+.+.+.+.+.+.+.+.+.+.+.+.+.+.+.+.+.+.+.+.+.+.+.+.+.+.+.+.+.+.+.+.+.+.+.+.+."
};
