/* XPM */
static char *result[] = {
/* columns rows colors chars-per-pixel */
"64 64 35 1 ",
"  c #575259",
". c #59555C",
"X c #5D5A5F",
"o c #5F5B61",
"O c #625D64",
"+ c #646166",
"@ c #666269",
"# c #6A656C",
"$ c #6D6A6E",
"% c #6E6B71",
"& c #716D73",
"* c #747275",
"= c #76747A",
"- c #78767C",
"; c #7D7B7E",
": c #7A7780",
"> c #7E7B82",
", c #807E82",
"< c #838283",
"1 c #868589",
"2 c #89868D",
"3 c #8E8E8D",
"4 c #8F908F",
"5 c #90908F",
"6 c #8D8B94",
"7 c #908D96",
"8 c #918E99",
"9 c #919191",
"0 c #969699",
"q c #98979C",
"w c #99999D",
"e c #9D9BA4",
"r c #A09EA7",
"t c #A19FA9",
"y c #A2A1AB",
/* pixels */
"rrrtyyetyetyyyee09533500rye7,&&>8eyyyttttttyyyee0590errrw03,-&$#",
"rrtreyyyyyyeyyee09333590ryr8>&%>6eyyyytyrrtyyyee8750errew93,;&##",
"teeteeeeeeeeeeee03533350ere6>%%>6etyeeeterreteeq9790werw003<=&##",
"ttteeeeweeeeeeqe09533590wew2=##>6etteeeeweweeee009990ew0093<=$@O",
"tteee00000000q00999545500091*+@:6eyeeq000000000095590000953<-#Oo",
"ttee06449955694693759559903,$OO-6wyye7365599999995799509053,*+..",
"ttee09333544444459935999993;$X+=6eye05333543655355953535593,*+. ",
"yyte04333334344644999359953;$+#;6eye05333434433559545355093;*O. ",
"tyee09333543435555949359993>&#%>7ere09335353434349554459503,&+  ",
"ytee09545575555955499959993<=%&,8eye00535559559995559599953,*+X ",
"trew09335599399355393495993<=#%,8eyew9457395559349554959095<*+. ",
"eew009934539949979999975903<&#%>8eyr09334949579994549499995,*+X ",
"000999949999955594939599995<&+#:7eyee9344575559459495599553<*+  ",
"799995953933655949495959993;$o+=7eteq9433559559394949559933<*+X ",
"557555569999495994959599993;$o+=6eeeq9645959949949495959993;*+. ",
"333355599393949549495999953,&+@=2qeq04545593493994949559093<*+. ",
"333539599499499594555499995<*$$=190099959494949549459499093;*+  ",
"535555754945945949555949994<=%&=159999553949495994499339993,&+. ",
"999995559495365599376999994<=$%=<30999559994949555935959993<*+X.",
"000095544959995545995939543<*$$=190099557549495956999599053<*#OX",
"eeew09655595555559595599994<%+@=60ew05534555559559939999993<-$++",
"rrew09445959555595955559094;%o+-6ere005445955559954939999931-&##",
"rrrw09355559559545999999993;$o+-6erew9344549999559459949993<;&$#",
"erww09559999999999999999993<&+#-2wye099599999999999999999031;&%#",
"ww0009909909599090999900005<*##-20wwq99099909999095550090951;*$#",
"090995999999559999999499994<=%%=190999995599995599559555905<;*$#",
"333333233555333334543333443<=%%=;14333554333543355335533553,=&#@",
",,,;;,;,<<<<,,;,;,;;;;;<<<<;=%%&-;;;;;;<,;;,<;;,<<<<,,;<11,;*#@+",
"***&&$$&**=**&$$$$$$$$%&*==**%%%$$$$$$$$$$$$$#&&****&$$**--&$@OO",
"&$$@OoOO$&$$@OOXOXXoXXo+$$%*%%##+XXXXXXXOX+XooOO@$$$+O++#%%$@Ooo",
"*&&$@OO##$&$@OOOO+++o++@$$%%%%%#++++++++OOOOOOO#%&&$@OO+#%%#+oX.",
",,>:;-:---**&&$&*==-=---===*&%%%*=---*;*&&%&&=::,,;;*&$*-=*&@O..",
"868866631<<,,;<12666663411<-*%%:,2888762<<,<227888862<;,<<;*$X..",
"eeereee0953432390eeeeeww943;=%&>2eyyeee09339qeeeeeee9533553<*+..",
"rttyttrw00554500eeyyyyyww03<*%%>8ryyyree0990eetytreeq999905<*+..",
"ytyyrrrw09955590eerrrtrww04;*#%>8eyyyeee0090werrreeqq099095<-#OX",
"yytre0009995999000wwwqqw9q5<&+#:9eyyee009990000weq000959995<-$++",
"ttre09959959399949999999993;$o+=6wyye9935599950997999579993<;&$$",
"ttee05335595999544445359993;$XO-6eyw053359554334343555999031;&##",
"tree05345959394333444559953;$X+-6eyy05333595454334434559993<=$+O",
"yyeeq9353993994993544359095;$X+=7ete09544555393393345959053,*#XX",
"yyeq87533959949599555599993;$X+-7eyew9544595999999939599093<*+X.",
"teee09354555655959969599993,$X+-2ete09559349934939495999995,&+..",
"eeeq09534555559593494949553;$X+*2qee09555993495579949559995<*#OX",
"000079539397999359559399094,$oO&,60099559395945555559599995<-$#+",
"995955594995639995954999993;$oX%,69095959959495555495959993<-&##",
"534355959495559549654949993,*OO&,39995593655939769949559993<;&##",
"333437594959559394949499953,*+@=190005559955499559395955093<-%++",
"333355939994999355959599993<*$%:60ew09533993959555954949993,*$OX",
"553559595649399995595999993<*%&>7eye09453499595955599499093,*+XX",
"995995795955553959599499993<*$%<7ere00539994759594944999994,*O  ",
"000095535559557995954939993<*#$;6wew09344355555939499499993<&+. ",
"ree007553949549459595599093,&+@*170005449555595599959499553<&+. ",
"rrew05354495593995955559993,&XX&,30099559655959556594999943,*+..",
"rree09533959959955555559995,&X+$;35999495995599559559599993;&+..",
"reew09559999999999955099095<&++*,599999999999999959999990q4<*+. ",
"ww0090999099090999909090907<*##*<5q099999990999999990999095<*+  ",
"9099999995955999559999950951-%%-<59999905799099509959905005<*+. ",
"533353333333335333335535551,=%%-<33433553333553553335333553;*+X.",
"<<<<<11<<<;<,<,,<;<<<1<<<<,:*%%*;;,<<3<<<<;<<<<<1<<<<<,<<<;**++X",
"-;-;;;-=;***&**&****-;--***&$%%%&***;;-*=&**=;-;;;-****&**&&$@@@",
"&&&&&&&%++X+++++OO+#$&&%$++#$$%#+++#$$&&#O+#$&&&*&&&#++++++@@$$$",
"####$#$+OX..... ..XO@##@O..O@$$@OX.O+##+o..OO#$$$$#+O.   .XO+$&&",
"#####$++X.   ..   .oO##OX..X##$@o..X+#$+O .oO######+X.    .O@$&&"
};
